<?xml version="1.0" encoding="UTF-8" standalone="no"?>
<!-- Created with Inkscape (http://www.inkscape.org/) -->

<svg
    xmlns:dc="http://purl.org/dc/elements/1.1/"
    xmlns:cc="http://creativecommons.org/ns#"
    xmlns:rdf="http://www.w3.org/1999/02/22-rdf-syntax-ns#"
    xmlns:svg="http://www.w3.org/2000/svg"
    xmlns="http://www.w3.org/2000/svg"
    version="1.1"
    width="560"
    height="320"
    id="svg2">
   <metadata
       id="metadata8">
      <rdf:RDF>
         <cc:Work
             rdf:about="">
            <dc:format>image/svg+xml</dc:format>
            <dc:type
                rdf:resource="http://purl.org/dc/dcmitype/StillImage" />
            <dc:title></dc:title>
         </cc:Work>
      </rdf:RDF>
   </metadata>
   <defs
       id="defs6" />
   <path
       d="m 240.398,81.918 c 0,5.342 -4.33,9.672 -9.672,9.672 -5.342,0 -9.673,-4.33 -9.673,-9.672 0,-5.342 4.331,-9.6732 9.673,-9.6732 5.342,0 9.672,4.3312 9.672,9.6732 z M 204.132,33.487 c 0,4.0532 -3.286,7.3402 -7.34,7.3402 -4.055,0 -7.341,-3.287 -7.341,-7.3402 0,-4.0551 3.286,-7.3412 7.341,-7.3412 4.054,0 7.34,3.2861 7.34,7.3412 z m 45.609,13.082 c 0,7.12 -5.772,12.892 -12.892,12.892 -7.12,0 -12.892,-5.772 -12.892,-12.892 0,-7.121 5.772,-12.892 12.892,-12.892 7.12,0 12.892,5.771 12.892,12.892 z M 127.59,107.568 c 0,7.12 -5.771,12.892 -12.892,12.892 -7.12,0 -12.892,-5.772 -12.892,-12.892 0,-7.12 5.772,-12.892 12.892,-12.892 7.121,0 12.892,5.772 12.892,12.892 z m -38.712,56.295 c 0,9.028 -7.317,16.346 -16.346,16.346 -9.027,0 -16.345,-7.318 -16.345,-16.346 0,-9.027 7.318,-16.345 16.345,-16.345 9.029,0 16.346,7.318 16.346,16.345 z m 91.208,23.9 c 0,11.697 -9.482,21.179 -21.18,21.179 -11.697,0 -21.179,-9.482 -21.179,-21.179 0,-11.698 9.482,-21.18 21.179,-21.18 11.698,0 21.18,9.482 21.18,21.18 z M 134,11 C 63.308,11 6,68.308 6,139 c 0,70.692 57.308,128 128,128 70.692,0 128,-57.308 128,-128 0,-9.479 -1.038,-18.705 -2.993,-27.597 -28.652,7.514 -36.355,-0.552 -42.59,-13.525 C 180.663,102.816 163.19,88.967 164.158,52.842 139.596,50.261 132.912,39.739 134,11 z"
       id="path3778"
       style="fill:#000000;fill-opacity:1;stroke:none" />
   <path
       d="m 415.727,26.655 c 1.633,20.595 11.953,31.627 29.956,34.215 3.004,32.405 18.893,51.334 57.036,46.964 5.842,12.938 19.69,17.775 35.223,17.036 0.578,4.627 0.864,9.346 0.864,14.13 0,62.3 -50.506,112.806 -112.806,112.806 -62.301,0 -112.806,-50.506 -112.806,-112.806 0,-58.835 45.051,-107.151 102.533,-112.345 z M 426,11 c -70.692,0 -128,57.308 -128,128 0,70.692 57.308,128 128,128 70.692,0 128,-57.308 128,-128 0,-9.479 -1.038,-18.705 -2.993,-27.597 -28.652,7.514 -36.355,-0.552 -42.59,-13.525 C 472.663,102.816 455.19,88.967 456.158,52.842 431.596,50.261 424.912,39.739 426,11 z m 46.086,176.763 c 0,11.697 -9.482,21.179 -21.18,21.179 -11.697,0 -21.179,-9.482 -21.179,-21.179 0,-11.698 9.482,-21.18 21.179,-21.18 11.698,0 21.18,9.482 21.18,21.18 z m -91.208,-23.9 c 0,9.028 -7.317,16.346 -16.346,16.346 -9.027,0 -16.345,-7.318 -16.345,-16.346 0,-9.027 7.318,-16.345 16.345,-16.345 9.029,0 16.346,7.318 16.346,16.345 z m 38.712,-56.295 c 0,7.12 -5.771,12.892 -12.892,12.892 -7.12,0 -12.892,-5.772 -12.892,-12.892 0,-7.12 5.772,-12.892 12.892,-12.892 7.121,0 12.892,5.772 12.892,12.892 z M 541.741,46.569 c 0,7.12 -5.772,12.892 -12.892,12.892 -7.12,0 -12.892,-5.772 -12.892,-12.892 0,-7.121 5.772,-12.892 12.892,-12.892 7.12,0 12.892,5.771 12.892,12.892 z M 496.132,33.487 c 0,4.053 -3.286,7.34 -7.34,7.34 -4.055,0 -7.341,-3.287 -7.341,-7.34 0,-4.055 3.286,-7.341 7.341,-7.341 4.054,0 7.34,3.286 7.34,7.341 z m 36.266,48.431 c 0,5.342 -4.33,9.672 -9.672,9.672 -5.342,0 -9.673,-4.33 -9.673,-9.672 0,-5.342 4.331,-9.673 9.673,-9.673 5.342,0 9.672,4.331 9.672,9.673 z"
       id="path3778-4"
       style="fill:#000000;fill-opacity:1;stroke:none" />
   <text
       x="29"
       y="307"
       id="text4032"
       xml:space="preserve"
       style="font-size:36px;font-style:normal;font-variant:normal;font-weight:bold;font-stretch:normal;line-height:125%;letter-spacing:0px;word-spacing:0px;fill:#000000;fill-opacity:1;stroke:none;font-family:Sans;-inkscape-font-specification:Sans Bold"><tspan
          x="29"
          y="307"
          id="tspan4034">cookie-solid</tspan></text>
   <text
       x="331.99985"
       y="307"
       id="text4038"
       xml:space="preserve"
       style="font-size:36px;font-style:normal;font-variant:normal;font-weight:bold;font-stretch:normal;line-height:125%;letter-spacing:0px;word-spacing:0px;fill:#000000;fill-opacity:1;stroke:none;font-family:Sans;-inkscape-font-specification:Sans Bold"><tspan
          x="331.99985"
          y="307"
          id="tspan4040">cookie-line</tspan></text>
</svg>
